<?xml version="1.0" encoding="UTF-8" standalone="no"?>
<!DOCTYPE svg PUBLIC "-//W3C//DTD SVG 1.1//EN" "http://www.w3.org/Graphics/SVG/1.1/DTD/svg11.dtd">
<svg width="100%" height="100%" viewBox="0 0 288 288" version="1.1" xmlns="http://www.w3.org/2000/svg" xmlns:xlink="http://www.w3.org/1999/xlink" xml:space="preserve" xmlns:serif="http://www.serif.com/" style="fill-rule:evenodd;clip-rule:evenodd;stroke-linejoin:round;stroke-miterlimit:2;">
    <g id="Quote-Left" serif:id="Quote Left" transform="matrix(0.999999,0,0,1.01103,-950.026,-135.945)">
        <path d="M1187.72,134.462L1172.51,178.462L1186.75,178.462L1207.64,134.462L1187.72,134.462Z" style="fill:rgb(51,58,66);"/>
    </g>
    <g id="Quote-Left1" serif:id="Quote Left" transform="matrix(0.999999,0,0,1.01103,-920.181,-135.945)">
        <path d="M1187.72,134.462L1172.51,178.462L1186.75,178.462L1207.64,134.462L1187.72,134.462Z" style="fill:rgb(51,58,66);"/>
    </g>
    <g id="Black-Square--Outside-" serif:id="Black Square (Outside)" transform="matrix(0.999999,0,0,0.999999,-302.126,-499.708)">
        <path d="M585.973,641.441L589.589,641.441L589.589,787.173L302.126,787.173L302.126,499.71L497.536,499.71L497.536,503.326L305.742,503.326L305.742,783.557L585.973,783.557L585.973,641.441Z" style="fill:rgb(244,148,2);"/>
    </g>
    <g transform="matrix(2.16744,0,0,2.16744,-43.8089,-42.7094)">
        <text x="27.263px" y="81.415px" style="font-family:'SegoeUI-Bold', 'Segoe UI', sans-serif;font-weight:700;font-size:16px;fill:rgb(51,58,66);">HOCHWERBEN</text>
    </g>
    <g transform="matrix(0.796339,0,0,0.796339,1.80911,80.3529)">
        <text x="20.06px" y="132.341px" style="font-family:'SegoeUI', 'Segoe UI', sans-serif;font-size:26.789px;fill:rgb(51,58,66);">At<tspan x="46.417px " y="132.341px ">l</tspan>asA<tspan x="94.659px 107.491px " y="132.341px 132.341px ">vi</tspan>a GmbH</text>
    </g>
    <g transform="matrix(0.796339,0,0,0.796339,1.80911,114.695)">
        <text x="20.06px" y="132.341px" style="font-family:'SegoeUI', 'Segoe UI', sans-serif;font-size:26.789px;fill:rgb(51,58,66);">Nord<tspan x="80.885px " y="132.341px ">e</tspan>ndstr.<tspan x="161.397px " y="132.341px "> </tspan>82-84</text>
    </g>
    <g transform="matrix(0.796339,0,0,0.796339,1.80911,149.036)">
        <text x="20.06px" y="132.341px" style="font-family:'SegoeUI', 'Segoe UI', sans-serif;font-size:26.789px;fill:rgb(51,58,66);">64546 Mörf<tspan x="157.054px " y="132.341px ">e</tspan>lden-W<tspan x="257.187px 270.817px " y="132.341px 132.341px ">al</tspan>ldorf</text>
    </g>
</svg>
