<svg width="298" height="46" viewBox="0 0 298 46" fill="none" xmlns="http://www.w3.org/2000/svg">
<g filter="url(#filter0_d)">
<path d="M76.4814 24.1953C76.8428 24.0195 77.3457 23.8047 77.9902 23.5508C78.6445 23.2871 79.0596 23.1553 79.2354 23.1553C79.3623 23.1553 79.4258 23.2236 79.4258 23.3604C79.4258 23.4971 79.3916 23.6387 79.3232 23.7852C79.2549 23.9316 79.1816 24.0586 79.1035 24.166C79.0352 24.2734 78.9424 24.4053 78.8252 24.5615L78.6055 24.8545C78.1367 25.5186 77.4629 26.0703 76.584 26.5098C76.2812 26.666 75.8418 26.8711 75.2656 27.125C74.6992 27.3789 74.3037 27.5645 74.0791 27.6816L73.3027 28.8535C71.6523 31.2949 70.2705 33.126 69.1572 34.3467C68.0537 35.5674 67.0283 36.4512 66.0811 36.998C65.1436 37.5449 64.0498 37.8184 62.7998 37.8184C62.1943 37.8184 61.7354 37.5547 61.4229 37.0273C61.1201 36.5098 60.9688 35.9238 60.9688 35.2695C60.9688 34.625 61.1689 33.9561 61.5693 33.2627C61.9795 32.5693 62.541 31.9053 63.2539 31.2705C63.9668 30.6455 64.7139 30.0498 65.4951 29.4834C66.2764 28.9268 67.1406 28.3848 68.0879 27.8574C69.6211 27.0273 71.1104 26.2803 72.5557 25.6162C76.1104 20.3818 79.7188 15.3086 83.3809 10.3965C83.459 10.3184 83.498 10.2598 83.498 10.2207C83.498 10.1816 83.3516 10.1621 83.0586 10.1621C82.7656 10.1621 82.1113 10.2598 81.0957 10.4551C78.8789 10.9043 76.6768 11.7197 74.4893 12.9014C72.3018 14.0732 70.4268 15.4209 68.8643 16.9443C67.3018 18.458 66.5205 19.6885 66.5205 20.6357C66.5205 21.1143 66.7256 21.5098 67.1357 21.8223C67.5459 22.125 67.9854 22.2764 68.4541 22.2764C68.9326 22.2764 69.4209 22.1592 69.9189 21.9248C70.4268 21.6807 70.8467 21.4414 71.1787 21.207C71.5107 20.9629 71.7012 20.8408 71.75 20.8408C71.7988 20.8408 71.8232 20.9092 71.8232 21.0459C71.8232 21.7588 71.6328 22.374 71.252 22.8916C70.8809 23.3994 70.3633 23.7803 69.6992 24.0342C69.0352 24.2881 68.3955 24.415 67.7803 24.415C67.1748 24.415 66.5547 24.2881 65.9199 24.0342C65.2852 23.7803 64.7432 23.3848 64.2939 22.8477C63.8545 22.3105 63.6348 21.7002 63.6348 21.0166C63.6348 20.7236 63.6982 20.377 63.8252 19.9766C64.792 16.832 67.9512 13.7998 73.3027 10.8799C75.1387 9.88379 77.1895 9.08301 79.4551 8.47754C81.7305 7.8623 83.8789 7.55469 85.9004 7.55469C86.2715 7.55469 86.5938 7.67188 86.8672 7.90625C87.1406 8.14062 87.2773 8.38965 87.2773 8.65332C87.2773 8.91699 87.2578 9.10254 87.2188 9.20996C87.1797 9.31738 87.0039 9.5957 86.6914 10.0449C86.3789 10.4941 86.0615 10.9287 85.7393 11.3486C84.8506 12.501 84.0938 13.4922 83.4688 14.3223C82.8438 15.1523 80.5146 18.4434 76.4814 24.1953ZM70.2705 29.0879C65.4658 32.0664 63.0635 34.0586 63.0635 35.0645C63.0635 35.2793 63.2295 35.3867 63.5615 35.3867C63.9033 35.3867 64.3477 35.2158 64.8945 34.874C65.4414 34.5322 65.9541 34.1318 66.4326 33.6729C66.9209 33.2139 67.4385 32.6621 67.9854 32.0176C68.7764 31.0801 69.5381 30.1035 70.2705 29.0879ZM100.071 17.8379C100.364 17.8379 100.662 17.9697 100.965 18.2334C101.277 18.4971 101.434 18.9023 101.434 19.4492C101.434 19.9863 101.243 20.6895 100.862 21.5586C100.481 22.418 99.959 23.2969 99.2949 24.1953C98.6309 25.084 97.8984 25.9238 97.0977 26.7148C96.3066 27.4961 95.4473 28.1406 94.5195 28.6484C93.6016 29.1465 92.7666 29.3955 92.0146 29.3955C91.2627 29.3955 90.6572 29.1611 90.1982 28.6924C89.749 28.2139 89.5244 27.5547 89.5244 26.7148C89.5244 25.8652 89.7295 24.9277 90.1396 23.9023C90.5596 22.877 91.0967 21.9736 91.751 21.1924C92.4053 20.4014 93.1133 19.6934 93.875 19.0684C95.4668 17.7891 96.8633 17.1494 98.0645 17.1494C98.6016 17.1494 99.0068 17.2812 99.2803 17.5449C99.3779 17.6328 99.4268 17.7109 99.4268 17.7793V17.8672C99.5635 17.8477 99.7783 17.8379 100.071 17.8379ZM98.5918 19.7861H98.4893C98.1475 19.7861 97.9766 19.5371 97.9766 19.0391C97.2637 19.2734 96.5166 19.6836 95.7354 20.2695C94.9541 20.8555 94.2559 21.5488 93.6406 22.3496C92.3906 23.9512 91.7559 25.3037 91.7363 26.4072C91.7363 26.9541 91.9365 27.2275 92.3369 27.2275C92.7373 27.2275 93.333 26.9639 94.124 26.4365C94.915 25.9092 95.6963 25.1572 96.4678 24.1807C97.249 23.2041 97.8301 22.3594 98.2109 21.6465C98.6016 20.9238 98.7969 20.4355 98.7969 20.1816C98.7969 19.918 98.7285 19.7861 98.5918 19.7861ZM123.002 24.6787C123.07 25.1279 123.104 25.4844 123.104 25.748C123.104 26.002 123.056 26.2266 122.958 26.4219C122.87 26.6074 122.665 26.876 122.343 27.2275C122.03 27.5693 121.654 27.916 121.215 28.2676C120.141 29.1172 119.042 29.542 117.919 29.542C116.308 29.542 115.502 28.8291 115.502 27.4033C115.502 26.1631 116.581 23.6924 118.739 19.9912C118.817 19.8545 118.871 19.7568 118.9 19.6982C118.148 20.2256 116.708 21.666 114.579 24.0195C112.46 26.3633 111.049 28.0234 110.346 29C110.287 29.0879 110.141 29.1855 109.906 29.293C109.672 29.4004 109.486 29.4541 109.35 29.4541C109.223 29.4541 109.086 29.4102 108.939 29.3223C108.783 29.2441 108.686 29.2051 108.646 29.2051C108.52 29.2051 108.456 29.1611 108.456 29.0732C108.456 28.9951 108.632 28.5508 108.983 27.7402C109.325 26.9199 109.779 25.9043 110.346 24.6934C111.898 21.3535 114.208 17.0078 117.274 11.6562C118.349 9.78125 119.188 8.45312 119.794 7.67188C120.224 7.11523 120.946 6.83691 121.962 6.83691C122.177 6.83691 122.299 6.90039 122.328 7.02734C122.357 7.1543 122.372 7.29102 122.372 7.4375C122.372 7.58398 122.343 7.73047 122.284 7.87695L120.717 10.3232C117.611 15.167 115.272 19.1807 113.7 22.3643C115.224 20.5088 116.703 19.0781 118.139 18.0723C119.027 17.4375 119.691 17.1201 120.131 17.1201C120.58 17.1201 120.985 17.1934 121.347 17.3398C121.708 17.4766 121.889 17.8135 121.889 18.3506C121.889 18.5459 121.571 19.2686 120.937 20.5186C119.032 24.2686 118.08 26.3535 118.08 26.7734C118.08 27.1836 118.251 27.3887 118.593 27.3887C119.091 27.3887 119.857 26.9053 120.893 25.9385C121.674 25.2061 122.167 24.7373 122.372 24.5322C122.489 24.4443 122.597 24.4004 122.694 24.4004C122.88 24.4004 122.982 24.4932 123.002 24.6787ZM138.564 26.7441C138.564 27.1738 138.857 27.3887 139.443 27.3887C139.756 27.3887 140.146 27.2324 140.615 26.9199C141.094 26.6074 141.523 26.2656 141.904 25.8945C142.92 24.8887 143.496 24.3857 143.633 24.3857C143.887 24.3857 144.014 24.752 144.014 25.4844C144.014 26.2168 143.784 26.7197 143.325 26.9932C141.929 28.2529 140.85 29.0195 140.088 29.293C139.658 29.4395 139.185 29.5078 138.667 29.498C138.149 29.4883 137.637 29.2637 137.129 28.8242C136.621 28.3848 136.367 27.8525 136.367 27.2275C136.367 26.5928 136.533 25.875 136.865 25.0742C137.197 24.2734 137.534 23.5898 137.876 23.0234C138.228 22.4473 138.657 21.7832 139.165 21.0312C139.673 20.2695 139.941 19.7959 139.971 19.6104L139.941 19.5811C139.619 19.6104 138.818 20.2451 137.539 21.4854C136.27 22.7256 135.22 23.8047 134.39 24.7227C133.56 25.6406 132.568 26.8662 131.416 28.3994C131.094 28.8193 130.83 29.0293 130.625 29.0293C130.42 29.0293 130.146 28.9658 129.805 28.8389C129.453 28.7021 129.238 28.6045 129.16 28.5459C129.082 28.4873 129.043 28.3994 129.043 28.2822C129.043 28.165 129.077 28.0234 129.146 27.8574C129.214 27.6816 129.282 27.54 129.351 27.4326C129.409 27.3154 129.512 27.1396 129.658 26.9053C129.805 26.6709 130.093 26.1777 130.522 25.4258C130.962 24.6641 131.631 23.5312 132.529 22.0273C133.428 20.5234 133.965 19.6152 134.141 19.3027C134.512 18.6582 134.814 18.1895 135.049 17.8965C135.488 17.3398 136.23 17.0615 137.275 17.0615C137.51 17.0615 137.627 17.208 137.627 17.501C137.627 17.96 137.202 18.8242 136.353 20.0938L135.737 21.0166C137.427 19.1416 138.853 17.9551 140.015 17.457C140.581 17.2129 141.089 17.0908 141.538 17.0908C141.997 17.0908 142.358 17.2129 142.622 17.457C142.896 17.7012 143.032 17.9746 143.032 18.2773C143.032 18.5703 142.93 18.9268 142.725 19.3467C142.52 19.7568 142.31 20.1279 142.095 20.46C141.89 20.7822 141.616 21.1924 141.274 21.6904C140.933 22.1885 140.747 22.4619 140.718 22.5107C140.688 22.5498 140.61 22.667 140.483 22.8623C140.366 23.0479 140.278 23.1846 140.22 23.2725C140.161 23.3604 140.063 23.5166 139.927 23.7412C139.79 23.9561 139.678 24.1367 139.59 24.2832C139.512 24.4297 139.409 24.6104 139.282 24.8252C139.165 25.04 139.067 25.2256 138.989 25.3818C138.921 25.5381 138.848 25.709 138.77 25.8945C138.633 26.2363 138.564 26.5195 138.564 26.7441Z" fill="white"/>
<path d="M173.015 14.6445L172.707 14.6006H172.648C172.404 14.6006 172.15 14.5029 171.887 14.3076C171.633 14.1123 171.506 13.7656 171.506 13.2676C171.506 12.7695 171.774 12.2031 172.312 11.5684C172.858 10.9336 173.596 10.3525 174.523 9.8252C175.451 9.28809 176.604 8.84863 177.98 8.50684C179.367 8.16504 180.827 7.99414 182.36 7.99414C185.495 7.99414 187.941 8.61426 189.699 9.85449C191.467 11.085 192.351 12.6865 192.351 14.6592C192.351 15.8896 192.077 17.1201 191.53 18.3506C190.983 19.5811 190.251 20.7188 189.333 21.7637C188.415 22.7988 187.336 23.7705 186.096 24.6787C184.855 25.5771 183.557 26.3438 182.199 26.9785C179.27 28.3262 176.467 29 173.791 29C172.473 29 171.643 28.8926 171.301 28.6777C171.174 28.6094 171.047 28.5068 170.92 28.3701C170.803 28.2236 170.71 28.126 170.642 28.0771C170.456 27.96 170.363 27.7109 170.363 27.3301C170.363 26.9395 170.402 26.5879 170.48 26.2754C170.773 25.2305 172.087 22.9648 174.421 19.4785C176.765 15.9824 178.723 13.165 180.295 11.0264C180.402 10.8799 180.954 10.7725 181.95 10.7041C182.36 10.7041 182.644 10.7334 182.8 10.792C182.956 10.8506 183.034 10.958 183.034 11.1143C183.034 11.2607 182.78 11.6904 182.272 12.4033C181.765 13.1064 180.134 15.582 177.38 19.8301C174.626 24.0684 173.249 26.2461 173.249 26.3633C173.249 26.4805 173.679 26.5391 174.538 26.5391C175.407 26.5391 176.472 26.3584 177.731 25.9971C179.001 25.626 180.192 25.1426 181.306 24.5469C182.419 23.9512 183.483 23.2627 184.499 22.4814C185.515 21.6904 186.384 20.8848 187.106 20.0645C188.688 18.2676 189.479 16.6709 189.479 15.2744C189.479 13.8779 188.84 12.6914 187.561 11.7148C186.291 10.7383 184.548 10.25 182.331 10.25C180.837 10.25 179.426 10.499 178.098 10.9971C176.77 11.4951 175.856 11.9395 175.358 12.3301C174.86 12.7207 174.611 12.9844 174.611 13.1211C174.611 13.1992 174.67 13.2383 174.787 13.2383L175.417 13.1211C175.505 13.1211 175.549 13.1406 175.549 13.1797C175.549 13.2188 175.466 13.2871 175.3 13.3848C175.134 13.4824 174.997 13.5898 174.89 13.707C174.792 13.8145 174.538 13.9951 174.128 14.249C173.718 14.4932 173.347 14.625 173.015 14.6445ZM209.378 17.8379C209.671 17.8379 209.969 17.9697 210.271 18.2334C210.584 18.4971 210.74 18.9023 210.74 19.4492C210.74 19.9863 210.55 20.6895 210.169 21.5586C209.788 22.418 209.266 23.2969 208.602 24.1953C207.938 25.084 207.205 25.9238 206.404 26.7148C205.613 27.4961 204.754 28.1406 203.826 28.6484C202.908 29.1465 202.073 29.3955 201.321 29.3955C200.569 29.3955 199.964 29.1611 199.505 28.6924C199.056 28.2139 198.831 27.5547 198.831 26.7148C198.831 25.8652 199.036 24.9277 199.446 23.9023C199.866 22.877 200.403 21.9736 201.058 21.1924C201.712 20.4014 202.42 19.6934 203.182 19.0684C204.773 17.7891 206.17 17.1494 207.371 17.1494C207.908 17.1494 208.313 17.2812 208.587 17.5449C208.685 17.6328 208.733 17.7109 208.733 17.7793V17.8672C208.87 17.8477 209.085 17.8379 209.378 17.8379ZM207.898 19.7861H207.796C207.454 19.7861 207.283 19.5371 207.283 19.0391C206.57 19.2734 205.823 19.6836 205.042 20.2695C204.261 20.8555 203.562 21.5488 202.947 22.3496C201.697 23.9512 201.062 25.3037 201.043 26.4072C201.043 26.9541 201.243 27.2275 201.644 27.2275C202.044 27.2275 202.64 26.9639 203.431 26.4365C204.222 25.9092 205.003 25.1572 205.774 24.1807C206.556 23.2041 207.137 22.3594 207.518 21.6465C207.908 20.9238 208.104 20.4355 208.104 20.1816C208.104 19.918 208.035 19.7861 207.898 19.7861ZM229.496 18.043C229.496 18.6875 229.232 19.2539 228.705 19.7422C228.188 20.2305 227.597 20.4746 226.933 20.4746C226.718 20.4746 226.576 20.4258 226.508 20.3281C226.439 20.2207 226.405 20.084 226.405 19.918C226.405 19.752 226.425 19.5908 226.464 19.4346C226.112 19.5518 225.722 19.7324 225.292 19.9766C224.862 20.2207 224.335 20.582 223.71 21.0605C223.085 21.5391 222.772 21.8955 222.772 22.1299C222.772 22.208 222.885 22.2471 223.109 22.2471C223.344 22.2471 223.7 22.1689 224.179 22.0127C224.657 21.8467 224.989 21.7637 225.175 21.7637C225.37 21.7637 225.497 21.7734 225.556 21.793C225.683 21.8613 225.819 22.0127 225.966 22.2471C226.112 22.4717 226.186 22.6523 226.186 22.7891C226.186 22.916 226.059 23.0869 225.805 23.3018C225.551 23.5166 225.263 23.6826 224.94 23.7998C224.618 23.9072 224.403 23.9902 224.296 24.0488C222.235 25.2012 221.205 25.9922 221.205 26.4219C221.205 27.1836 221.854 27.5645 223.153 27.5645C223.983 27.5645 224.818 27.3008 225.658 26.7734C226.371 26.3242 227.011 25.8701 227.577 25.4111C228.153 24.9424 228.515 24.6543 228.661 24.5469C228.817 24.4395 228.935 24.3857 229.013 24.3857C229.267 24.3857 229.394 24.6689 229.394 25.2354C229.394 25.8018 229.359 26.1777 229.291 26.3633C229.223 26.5391 229.027 26.7588 228.705 27.0225C226.615 28.7217 224.638 29.5713 222.772 29.5713C221.776 29.5713 220.98 29.4346 220.385 29.1611C219.291 28.6631 218.744 27.9014 218.744 26.876C218.744 25.5283 219.677 24.5078 221.542 23.8145C221.171 23.6484 220.932 23.4385 220.824 23.1846C220.717 22.9209 220.663 22.5059 220.663 21.9395C220.663 21.3633 220.927 20.7578 221.454 20.123C221.991 19.4785 222.646 18.9512 223.417 18.541C225.136 17.6133 226.669 17.1494 228.017 17.1494C228.339 17.1494 228.666 17.2275 228.998 17.3838C229.33 17.54 229.496 17.7598 229.496 18.043Z" fill="#2892D7"/>
</g>
<defs>
<filter id="filter0_d" x="56.9688" y="6.83691" width="176.527" height="38.9814" filterUnits="userSpaceOnUse" color-interpolation-filters="sRGB">
<feFlood flood-opacity="0" result="BackgroundImageFix"/>
<feColorMatrix in="SourceAlpha" type="matrix" values="0 0 0 0 0 0 0 0 0 0 0 0 0 0 0 0 0 0 127 0"/>
<feOffset dy="4"/>
<feGaussianBlur stdDeviation="2"/>
<feColorMatrix type="matrix" values="0 0 0 0 0 0 0 0 0 0 0 0 0 0 0 0 0 0 0.25 0"/>
<feBlend mode="normal" in2="BackgroundImageFix" result="effect1_dropShadow"/>
<feBlend mode="normal" in="SourceGraphic" in2="effect1_dropShadow" result="shape"/>
</filter>
</defs>
</svg>
